<svg xmlns="http://www.w3.org/2000/svg" aria-labelledby="s_line-thinned-annotation-1" dominant-baseline="auto" fill="#1a1a1a" fill-opacity="1" font-family="DravenViz Noto Sans, Noto Sans, sans-serif" font-size="13" font-style="normal" font-weight="400" height="320" letter-spacing="normal" role="img" stroke="none" stroke-dasharray="none" stroke-linecap="butt" stroke-linejoin="miter" stroke-opacity="1" stroke-width="1" text-anchor="start" viewBox="0 0 680 320" width="680"><title id="s_line-thinned-annotation-1">Open items over 90 days</title><style>@font-face{font-family:"DravenViz Noto Sans";font-style:normal;font-weight:400;src:url("fonts/NotoSans-Regular.woff2") format("woff2");}</style><style>@font-face{font-family:"DravenViz Noto Sans";font-style:normal;font-weight:600;src:url("fonts/NotoSans-SemiBold.woff2") format("woff2");}</style><g/><g/><defs><clipPath id="s_line-thinned-annotation-2"><rect height="183.5" width="606.88" x="57.12" y="47.25"/></clipPath></defs><rect data-dv-background="" fill="#ffffff" height="320" width="680" x="0" y="0"/><g data-dv-grid=""><line fill="none" stroke="#d9d9d9" stroke-linejoin="round" stroke-width="0.75" x1="57.12" x2="664" y1="230.75" y2="230.75"/><line fill="none" stroke="#d9d9d9" stroke-linejoin="round" stroke-width="0.75" x1="57.12" x2="664" y1="184.88" y2="184.88"/><line fill="none" stroke="#d9d9d9" stroke-linejoin="round" stroke-width="0.75" x1="57.12" x2="664" y1="139" y2="139"/><line fill="none" stroke="#d9d9d9" stroke-linejoin="round" stroke-width="0.75" x1="57.12" x2="664" y1="93.13" y2="93.13"/><line fill="none" stroke="#d9d9d9" stroke-linejoin="round" stroke-width="0.75" x1="57.12" x2="664" y1="47.25" y2="47.25"/><line data-dv-axis-line="x" fill="none" stroke="#595959" stroke-linejoin="round" x1="57.12" x2="664" y1="230.75" y2="230.75"/></g><g data-dv-series="open"><g data-dv-mark="series:open:segment"><g data-dv-item=""><g><defs><clipPath id="s_line-thinned-annotation-3"><rect height="183.5" width="606.88" x="57.12" y="47.25"/></clipPath></defs><g><path clip-path="url(#s_line-thinned-annotation-3)" d="M57.12,139L63.94,136.71L70.76,132.12L77.58,129.82L84.4,127.53L91.22,125.24L98.04,120.65L104.85,118.36L111.67,116.06L118.49,113.77L125.31,111.48L132.13,111.48L138.95,106.89L145.77,106.89L152.59,106.89L159.41,106.89L166.22,106.89L173.04,109.18L179.86,106.89L186.68,109.18L193.5,109.18L200.32,111.48L207.14,113.77L213.96,116.06L220.78,118.36L227.59,120.65L234.41,122.94L241.23,125.24L248.05,129.82L254.87,132.12L261.69,132.12L268.51,136.71L275.33,139L282.14,141.29L288.96,143.59L295.78,145.88L302.6,145.88L309.42,148.18L316.24,150.47L323.06,150.47L329.88,152.76L336.7,152.76L343.51,150.47L350.33,150.47L357.15,150.47L363.97,150.47L370.79,148.18L377.61,145.88L384.43,143.59L391.25,141.29L398.07,139L404.88,136.71L411.7,134.41L418.52,132.12L425.34,125.24L432.16,122.94L438.98,120.65L445.8,116.06L452.62,113.77L459.43,111.48L466.25,106.89L473.07,102.3L479.89,100.01L486.71,97.71L493.53,95.42L500.35,93.13L507.17,90.83L513.99,88.54L520.8,88.54L527.62,86.24L534.44,86.24L541.26,86.24L548.08,83.95L554.9,83.95L561.72,86.24L568.54,86.24L575.36,88.54L582.17,90.83L588.99,90.83L595.81,93.13L602.63,95.42L609.45,97.71L616.27,100.01L623.09,104.59L629.91,104.59L636.73,106.89L643.54,111.48L650.36,113.77L657.18,116.06L664,118.36" fill="none" id="s_line-thinned-annotation-4" stroke="#112745" stroke-linejoin="round" stroke-width="2"/></g></g></g></g></g><g data-dv-series="closed"><g data-dv-mark="series:closed:segment"><g data-dv-item=""><g><defs><clipPath id="s_line-thinned-annotation-5"><rect height="183.5" width="606.88" x="57.12" y="47.25"/></clipPath></defs><g><path clip-path="url(#s_line-thinned-annotation-5)" d="M57.12,166.53L63.94,166.53L70.76,166.53L77.58,166.53L84.4,168.82L91.22,166.53L98.04,166.53L104.85,168.82L111.67,168.82L118.49,171.11L125.31,168.82L132.13,171.11L138.95,171.11L145.77,173.41L152.59,175.7L159.41,173.41L166.22,175.7L173.04,177.99L179.86,180.29L186.68,180.29L193.5,180.29L200.32,182.58L207.14,182.58L213.96,184.88L220.78,187.17L227.59,184.88L234.41,187.17L241.23,187.17L248.05,189.46L254.87,189.46L261.69,187.17L268.51,189.46L275.33,189.46L282.14,189.46L288.96,189.46L295.78,187.17L302.6,187.17L309.42,187.17L316.24,187.17L323.06,184.88L329.88,182.58L336.7,182.58L343.51,180.29L350.33,180.29L357.15,177.99L363.97,175.7L370.79,173.41L377.61,171.11L384.43,171.11L391.25,168.82L398.07,164.23L404.88,164.23L411.7,161.94L418.52,159.64L425.34,157.35L432.16,155.06L438.98,152.76L445.8,150.47L452.62,150.47L459.43,148.18L466.25,145.88L473.07,143.59L479.89,143.59L486.71,141.29L493.53,141.29L500.35,139L507.17,136.71L513.99,136.71L520.8,136.71L527.62,136.71L534.44,134.41L541.26,134.41L548.08,134.41L554.9,134.41L561.72,136.71L568.54,134.41L575.36,136.71L582.17,136.71L588.99,136.71L595.81,139L602.63,139L609.45,139L616.27,141.29L623.09,143.59L629.91,143.59L636.73,143.59L643.54,145.88L650.36,145.88L657.18,148.18L664,150.47" fill="none" id="s_line-thinned-annotation-6" stroke="#924d24" stroke-dasharray="8 5" stroke-linejoin="round" stroke-width="2"/></g></g></g></g></g><g data-dv-mark="annotation"><g data-dv-annotation="policy-change" data-dv-item=""><line fill="none" stroke="#333333" stroke-dasharray="6 3.75" stroke-linejoin="round" stroke-width="1.5" x1="343.51" x2="343.51" y1="47.25" y2="230.75"/><text data-dv-label-id="annotation-policy-change" data-dv-text-role="annotation" fill="#333333" x="347.51" y="62.42">Policy change (1)</text></g></g><g data-dv-axis-titles=""><text data-dv-label-id="axis-title-count" data-dv-text-role="axis-title" fill="#4d4d4d" text-anchor="middle" transform="rotate(-90 29.17 139)" x="29.17" y="139">Items (count)</text></g><g data-dv-title=""><text data-dv-label-id="title" data-dv-text-role="title" font-size="17" font-weight="600" x="16" y="33.22">Open items over 90 days</text></g><g data-dv-legend=""><g data-dv-legend-row=""><g data-dv-legend-item="open"><g><line fill="none" stroke="#112745" stroke-linejoin="round" stroke-width="2" x1="16" x2="44" y1="272.13" y2="272.13"/></g><text data-dv-label-id="legend-open" data-dv-text-role="legend" x="49" y="277.17">Open items awaiting a decision from the owning service teams</text></g><g data-dv-legend-item="closed"><g><line fill="none" stroke="#924d24" stroke-dasharray="8 5" stroke-linejoin="round" stroke-width="2" x1="443.68" x2="471.68" y1="272.13" y2="272.13"/></g><text data-dv-label-id="legend-closed" data-dv-text-role="legend" x="476.68" y="277.17">Closed</text></g></g></g><g data-dv-notes=""><text data-dv-label-id="note-0" data-dv-text-role="note" fill="#4d4d4d" font-size="11" x="16" y="301.39">(1) Policy change — Triage rules changed on 12 Aug; later counts are not directly comparable.</text></g><g/><g/><g/><g/><g><g><g><g><g/><g/><g/></g></g></g><g><g><g><g/><g/><g/><g/><g/></g></g></g></g><g/><g/><g/><g/><g><g><g><g data-dv-x-tick=""><text data-dv-label-id="x-tick-1782864000000" data-dv-text-role="tick" text-anchor="middle" x="57.12" y="248.92">Jul 2026</text></g></g><g><g data-dv-x-tick=""><text data-dv-label-id="x-tick-1785542400000" data-dv-text-role="tick" text-anchor="middle" x="268.51" y="248.92">Aug 2026</text></g></g><g><g data-dv-x-tick=""><text data-dv-label-id="x-tick-1788220800000" data-dv-text-role="tick" text-anchor="middle" x="479.89" y="248.92">Sep 2026</text></g></g></g><g><g><text data-dv-label-id="y-tick-count-0" data-dv-text-role="tick" text-anchor="end" x="52.12" y="235.79">0</text></g><g><text data-dv-label-id="y-tick-count-20" data-dv-text-role="tick" text-anchor="end" x="52.12" y="189.92">20</text></g><g><text data-dv-label-id="y-tick-count-40" data-dv-text-role="tick" text-anchor="end" x="52.12" y="144.04">40</text></g><g><text data-dv-label-id="y-tick-count-60" data-dv-text-role="tick" text-anchor="end" x="52.12" y="98.17">60</text></g><g><text data-dv-label-id="y-tick-count-80" data-dv-text-role="tick" text-anchor="end" x="52.12" y="52.29">80</text></g></g></g></svg>